<mxfile host="app.diagrams.net" modified="2021-05-29T06:31:31.148Z" agent="5.0 (Windows NT 10.0; Win64; x64) AppleWebKit/537.36 (KHTML, like Gecko) Chrome/91.0.4472.77 Safari/537.36 Edg/91.0.864.37" etag="gzH_jQZwZyCiCUFdChh-" version="14.6.13" type="github" pages="2">
  <diagram id="C5RBs43oDa-KdzZeNtuy" name="Page-1">
    <mxGraphModel dx="2635" dy="1717" grid="0" gridSize="10" guides="1" tooltips="1" connect="1" arrows="1" fold="1" page="1" pageScale="1" pageWidth="827" pageHeight="1169" math="0" shadow="0">
      <root>
        <mxCell id="WIyWlLk6GJQsqaUBKTNV-0" />
        <mxCell id="WIyWlLk6GJQsqaUBKTNV-1" parent="WIyWlLk6GJQsqaUBKTNV-0" />
        <mxCell id="oeVNkZtHtVuQ6cAMgTv2-0" value="Yes" style="rounded=0;html=1;jettySize=auto;orthogonalLoop=1;fontSize=11;endArrow=block;endFill=0;endSize=8;strokeWidth=1;shadow=0;labelBackgroundColor=none;edgeStyle=orthogonalEdgeStyle;" parent="WIyWlLk6GJQsqaUBKTNV-1" source="oeVNkZtHtVuQ6cAMgTv2-2" target="oeVNkZtHtVuQ6cAMgTv2-6" edge="1">
          <mxGeometry y="20" relative="1" as="geometry">
            <mxPoint as="offset" />
          </mxGeometry>
        </mxCell>
        <mxCell id="oeVNkZtHtVuQ6cAMgTv2-1" value="No" style="edgeStyle=orthogonalEdgeStyle;rounded=0;html=1;jettySize=auto;orthogonalLoop=1;fontSize=11;endArrow=block;endFill=0;endSize=8;strokeWidth=1;shadow=0;labelBackgroundColor=none;" parent="WIyWlLk6GJQsqaUBKTNV-1" source="oeVNkZtHtVuQ6cAMgTv2-2" target="oeVNkZtHtVuQ6cAMgTv2-3" edge="1">
          <mxGeometry y="10" relative="1" as="geometry">
            <mxPoint as="offset" />
          </mxGeometry>
        </mxCell>
        <mxCell id="oeVNkZtHtVuQ6cAMgTv2-2" value="Lamp&lt;br&gt;plugged in?" style="rhombus;whiteSpace=wrap;html=1;shadow=0;fontFamily=Helvetica;fontSize=12;align=center;strokeWidth=1;spacing=6;spacingTop=-4;" parent="WIyWlLk6GJQsqaUBKTNV-1" vertex="1">
          <mxGeometry x="920" y="285" width="100" height="80" as="geometry" />
        </mxCell>
        <mxCell id="oeVNkZtHtVuQ6cAMgTv2-3" value="Plug in lamp" style="rounded=1;whiteSpace=wrap;html=1;fontSize=12;glass=0;strokeWidth=1;shadow=0;" parent="WIyWlLk6GJQsqaUBKTNV-1" vertex="1">
          <mxGeometry x="1070" y="305" width="120" height="40" as="geometry" />
        </mxCell>
        <mxCell id="oeVNkZtHtVuQ6cAMgTv2-4" value="No" style="rounded=0;html=1;jettySize=auto;orthogonalLoop=1;fontSize=11;endArrow=block;endFill=0;endSize=8;strokeWidth=1;shadow=0;labelBackgroundColor=none;edgeStyle=orthogonalEdgeStyle;" parent="WIyWlLk6GJQsqaUBKTNV-1" source="oeVNkZtHtVuQ6cAMgTv2-6" target="oeVNkZtHtVuQ6cAMgTv2-7" edge="1">
          <mxGeometry x="0.3333" y="20" relative="1" as="geometry">
            <mxPoint as="offset" />
          </mxGeometry>
        </mxCell>
        <mxCell id="oeVNkZtHtVuQ6cAMgTv2-5" value="Yes" style="edgeStyle=orthogonalEdgeStyle;rounded=0;html=1;jettySize=auto;orthogonalLoop=1;fontSize=11;endArrow=block;endFill=0;endSize=8;strokeWidth=1;shadow=0;labelBackgroundColor=none;" parent="WIyWlLk6GJQsqaUBKTNV-1" source="oeVNkZtHtVuQ6cAMgTv2-6" target="oeVNkZtHtVuQ6cAMgTv2-8" edge="1">
          <mxGeometry y="10" relative="1" as="geometry">
            <mxPoint as="offset" />
          </mxGeometry>
        </mxCell>
        <mxCell id="oeVNkZtHtVuQ6cAMgTv2-6" value="Bulb&lt;br&gt;burned out?" style="rhombus;whiteSpace=wrap;html=1;shadow=0;fontFamily=Helvetica;fontSize=12;align=center;strokeWidth=1;spacing=6;spacingTop=-4;" parent="WIyWlLk6GJQsqaUBKTNV-1" vertex="1">
          <mxGeometry x="920" y="405" width="100" height="80" as="geometry" />
        </mxCell>
        <mxCell id="oeVNkZtHtVuQ6cAMgTv2-7" value="Repair Lamp" style="rounded=1;whiteSpace=wrap;html=1;fontSize=12;glass=0;strokeWidth=1;shadow=0;" parent="WIyWlLk6GJQsqaUBKTNV-1" vertex="1">
          <mxGeometry x="910" y="545" width="120" height="40" as="geometry" />
        </mxCell>
        <mxCell id="oeVNkZtHtVuQ6cAMgTv2-8" value="Replace Bulb" style="rounded=1;whiteSpace=wrap;html=1;fontSize=12;glass=0;strokeWidth=1;shadow=0;" parent="WIyWlLk6GJQsqaUBKTNV-1" vertex="1">
          <mxGeometry x="1070" y="425" width="120" height="40" as="geometry" />
        </mxCell>
        <mxCell id="oeVNkZtHtVuQ6cAMgTv2-18" value="Repair Lamp" style="rounded=1;whiteSpace=wrap;html=1;fontSize=12;glass=0;strokeWidth=1;shadow=0;" parent="WIyWlLk6GJQsqaUBKTNV-1" vertex="1">
          <mxGeometry x="930" y="615" width="120" height="40" as="geometry" />
        </mxCell>
        <mxCell id="osNyrSHT3eNxlnk6y9xx-10" value="User" style="shape=umlActor;verticalLabelPosition=bottom;verticalAlign=top;html=1;outlineConnect=0;" vertex="1" parent="WIyWlLk6GJQsqaUBKTNV-1">
          <mxGeometry x="-827" y="-325" width="30" height="60" as="geometry" />
        </mxCell>
        <mxCell id="osNyrSHT3eNxlnk6y9xx-11" value="Production" style="rounded=0;whiteSpace=wrap;html=1;" vertex="1" parent="WIyWlLk6GJQsqaUBKTNV-1">
          <mxGeometry x="-917" y="-148" width="120" height="60" as="geometry" />
        </mxCell>
        <mxCell id="osNyrSHT3eNxlnk6y9xx-12" value="" style="endArrow=none;dashed=1;html=1;exitX=0.5;exitY=0.5;exitDx=0;exitDy=0;exitPerimeter=0;" edge="1" parent="WIyWlLk6GJQsqaUBKTNV-1" source="osNyrSHT3eNxlnk6y9xx-10">
          <mxGeometry width="50" height="50" relative="1" as="geometry">
            <mxPoint x="-736" y="-261" as="sourcePoint" />
            <mxPoint x="509" y="-295" as="targetPoint" />
          </mxGeometry>
        </mxCell>
        <mxCell id="osNyrSHT3eNxlnk6y9xx-14" value="" style="endArrow=none;dashed=1;html=1;exitX=1;exitY=0.5;exitDx=0;exitDy=0;startArrow=none;" edge="1" parent="WIyWlLk6GJQsqaUBKTNV-1" source="osNyrSHT3eNxlnk6y9xx-46">
          <mxGeometry width="50" height="50" relative="1" as="geometry">
            <mxPoint x="-786" y="-118.5" as="sourcePoint" />
            <mxPoint x="535" y="-118.5" as="targetPoint" />
          </mxGeometry>
        </mxCell>
        <mxCell id="osNyrSHT3eNxlnk6y9xx-17" style="rounded=0;orthogonalLoop=1;jettySize=auto;html=1;entryX=0.5;entryY=0;entryDx=0;entryDy=0;" edge="1" parent="WIyWlLk6GJQsqaUBKTNV-1" source="osNyrSHT3eNxlnk6y9xx-15" target="WIyWlLk6GJQsqaUBKTNV-3">
          <mxGeometry relative="1" as="geometry" />
        </mxCell>
        <mxCell id="osNyrSHT3eNxlnk6y9xx-15" value="Click Start" style="rounded=1;whiteSpace=wrap;html=1;fontSize=12;glass=0;strokeWidth=1;shadow=0;" vertex="1" parent="WIyWlLk6GJQsqaUBKTNV-1">
          <mxGeometry x="-698" y="-315" width="120" height="40" as="geometry" />
        </mxCell>
        <mxCell id="WIyWlLk6GJQsqaUBKTNV-2" value="" style="rounded=0;html=1;jettySize=auto;orthogonalLoop=1;fontSize=11;endArrow=block;endFill=0;endSize=8;strokeWidth=1;shadow=0;labelBackgroundColor=none;edgeStyle=orthogonalEdgeStyle;entryX=0.5;entryY=0;entryDx=0;entryDy=0;" parent="WIyWlLk6GJQsqaUBKTNV-1" source="WIyWlLk6GJQsqaUBKTNV-3" target="osNyrSHT3eNxlnk6y9xx-43" edge="1">
          <mxGeometry x="-784" y="-139" as="geometry">
            <mxPoint x="-549" y="-40" as="targetPoint" />
          </mxGeometry>
        </mxCell>
        <mxCell id="osNyrSHT3eNxlnk6y9xx-18" value="Read &lt;font color=&quot;#ff3333&quot;&gt;SGProduction&lt;/font&gt;.ini File" style="rounded=1;whiteSpace=wrap;html=1;fontSize=12;glass=0;strokeWidth=1;shadow=0;" vertex="1" parent="WIyWlLk6GJQsqaUBKTNV-1">
          <mxGeometry x="-639" y="49" width="180" height="40" as="geometry" />
        </mxCell>
        <mxCell id="osNyrSHT3eNxlnk6y9xx-19" value="Barcode File Path" style="shape=parallelogram;html=1;strokeWidth=2;perimeter=parallelogramPerimeter;whiteSpace=wrap;rounded=1;arcSize=12;size=0.23;" vertex="1" parent="WIyWlLk6GJQsqaUBKTNV-1">
          <mxGeometry x="-629" y="129" width="160" height="35" as="geometry" />
        </mxCell>
        <mxCell id="osNyrSHT3eNxlnk6y9xx-20" style="edgeStyle=orthogonalEdgeStyle;rounded=0;orthogonalLoop=1;jettySize=auto;html=1;entryX=0.5;entryY=0;entryDx=0;entryDy=0;" edge="1" parent="WIyWlLk6GJQsqaUBKTNV-1" source="osNyrSHT3eNxlnk6y9xx-18" target="osNyrSHT3eNxlnk6y9xx-19">
          <mxGeometry x="-784" y="-41" as="geometry" />
        </mxCell>
        <mxCell id="osNyrSHT3eNxlnk6y9xx-21" value="Read Barcode File" style="rounded=1;whiteSpace=wrap;html=1;fontSize=12;glass=0;strokeWidth=1;shadow=0;" vertex="1" parent="WIyWlLk6GJQsqaUBKTNV-1">
          <mxGeometry x="-609" y="199" width="120" height="40" as="geometry" />
        </mxCell>
        <mxCell id="osNyrSHT3eNxlnk6y9xx-22" style="edgeStyle=orthogonalEdgeStyle;rounded=0;orthogonalLoop=1;jettySize=auto;html=1;entryX=0.5;entryY=0;entryDx=0;entryDy=0;" edge="1" parent="WIyWlLk6GJQsqaUBKTNV-1" source="osNyrSHT3eNxlnk6y9xx-19" target="osNyrSHT3eNxlnk6y9xx-21">
          <mxGeometry x="-784" y="-41" as="geometry" />
        </mxCell>
        <mxCell id="osNyrSHT3eNxlnk6y9xx-23" value="RECIPEFILE_PATH Node + &lt;font color=&quot;#ff3333&quot;&gt;CP&lt;/font&gt; + Customer Node + &lt;br&gt;TesterID Node + Program Node + .txt" style="shape=parallelogram;html=1;strokeWidth=2;perimeter=parallelogramPerimeter;whiteSpace=wrap;rounded=1;arcSize=12;size=0.23;" vertex="1" parent="WIyWlLk6GJQsqaUBKTNV-1">
          <mxGeometry x="-784" y="469" width="470" height="35" as="geometry" />
        </mxCell>
        <mxCell id="osNyrSHT3eNxlnk6y9xx-24" style="edgeStyle=orthogonalEdgeStyle;rounded=0;orthogonalLoop=1;jettySize=auto;html=1;entryX=0.5;entryY=0;entryDx=0;entryDy=0;" edge="1" parent="WIyWlLk6GJQsqaUBKTNV-1" source="osNyrSHT3eNxlnk6y9xx-25" target="osNyrSHT3eNxlnk6y9xx-23">
          <mxGeometry x="-784" y="-41" as="geometry" />
        </mxCell>
        <mxCell id="osNyrSHT3eNxlnk6y9xx-25" value="Is CP ?" style="rhombus;whiteSpace=wrap;html=1;shadow=0;fontFamily=Helvetica;fontSize=12;align=center;strokeWidth=1;spacing=6;spacingTop=-4;" vertex="1" parent="WIyWlLk6GJQsqaUBKTNV-1">
          <mxGeometry x="-594" y="359" width="90" height="60" as="geometry" />
        </mxCell>
        <mxCell id="osNyrSHT3eNxlnk6y9xx-26" style="edgeStyle=orthogonalEdgeStyle;rounded=0;orthogonalLoop=1;jettySize=auto;html=1;entryX=0.5;entryY=0;entryDx=0;entryDy=0;" edge="1" parent="WIyWlLk6GJQsqaUBKTNV-1" source="osNyrSHT3eNxlnk6y9xx-27" target="osNyrSHT3eNxlnk6y9xx-25">
          <mxGeometry x="-784" y="-41" as="geometry" />
        </mxCell>
        <mxCell id="osNyrSHT3eNxlnk6y9xx-27" value="FT1_FTn Node" style="shape=parallelogram;html=1;strokeWidth=2;perimeter=parallelogramPerimeter;whiteSpace=wrap;rounded=1;arcSize=12;size=0.23;" vertex="1" parent="WIyWlLk6GJQsqaUBKTNV-1">
          <mxGeometry x="-624" y="284" width="150" height="35" as="geometry" />
        </mxCell>
        <mxCell id="osNyrSHT3eNxlnk6y9xx-28" style="edgeStyle=orthogonalEdgeStyle;rounded=0;orthogonalLoop=1;jettySize=auto;html=1;entryX=0.5;entryY=0;entryDx=0;entryDy=0;" edge="1" parent="WIyWlLk6GJQsqaUBKTNV-1" source="osNyrSHT3eNxlnk6y9xx-21" target="osNyrSHT3eNxlnk6y9xx-27">
          <mxGeometry x="-784" y="-41" as="geometry">
            <mxPoint x="-549" y="279" as="targetPoint" />
          </mxGeometry>
        </mxCell>
        <mxCell id="osNyrSHT3eNxlnk6y9xx-29" value="RECIPEFILE_PATH Node&amp;nbsp;+ Customer Node + &lt;br&gt;TesterID Node + Program Node + .txt" style="shape=parallelogram;html=1;strokeWidth=2;perimeter=parallelogramPerimeter;whiteSpace=wrap;rounded=1;arcSize=12;size=0.23;" vertex="1" parent="WIyWlLk6GJQsqaUBKTNV-1">
          <mxGeometry x="-1210" y="371.5" width="470" height="35" as="geometry" />
        </mxCell>
        <mxCell id="osNyrSHT3eNxlnk6y9xx-30" style="edgeStyle=orthogonalEdgeStyle;rounded=0;orthogonalLoop=1;jettySize=auto;html=1;exitX=0;exitY=0.5;exitDx=0;exitDy=0;entryX=1;entryY=0.5;entryDx=0;entryDy=0;" edge="1" parent="WIyWlLk6GJQsqaUBKTNV-1" source="osNyrSHT3eNxlnk6y9xx-25" target="osNyrSHT3eNxlnk6y9xx-29">
          <mxGeometry x="-784" y="-41" as="geometry">
            <mxPoint x="-699" y="425" as="sourcePoint" />
            <mxPoint x="-691" y="429" as="targetPoint" />
            <Array as="points">
              <mxPoint x="-714" y="389" />
              <mxPoint x="-714" y="389" />
            </Array>
          </mxGeometry>
        </mxCell>
        <mxCell id="osNyrSHT3eNxlnk6y9xx-31" value="No" style="edgeLabel;html=1;align=center;verticalAlign=middle;resizable=0;points=[];" vertex="1" connectable="0" parent="osNyrSHT3eNxlnk6y9xx-30">
          <mxGeometry x="-0.2089" y="-2" relative="1" as="geometry">
            <mxPoint as="offset" />
          </mxGeometry>
        </mxCell>
        <mxCell id="osNyrSHT3eNxlnk6y9xx-32" value="Lock FT Selection" style="rounded=1;whiteSpace=wrap;html=1;fontSize=12;glass=0;strokeWidth=1;shadow=0;" vertex="1" parent="WIyWlLk6GJQsqaUBKTNV-1">
          <mxGeometry x="-609" y="591" width="120" height="40" as="geometry" />
        </mxCell>
        <mxCell id="osNyrSHT3eNxlnk6y9xx-33" style="edgeStyle=orthogonalEdgeStyle;rounded=0;orthogonalLoop=1;jettySize=auto;html=1;entryX=0.5;entryY=0;entryDx=0;entryDy=0;" edge="1" parent="WIyWlLk6GJQsqaUBKTNV-1" source="osNyrSHT3eNxlnk6y9xx-23" target="osNyrSHT3eNxlnk6y9xx-32">
          <mxGeometry x="-784" y="-41" as="geometry" />
        </mxCell>
        <mxCell id="osNyrSHT3eNxlnk6y9xx-34" value="Unlock FT Selection" style="rounded=1;whiteSpace=wrap;html=1;fontSize=12;glass=0;strokeWidth=1;shadow=0;" vertex="1" parent="WIyWlLk6GJQsqaUBKTNV-1">
          <mxGeometry x="-1035" y="679" width="120" height="40" as="geometry" />
        </mxCell>
        <mxCell id="osNyrSHT3eNxlnk6y9xx-35" style="edgeStyle=orthogonalEdgeStyle;rounded=0;orthogonalLoop=1;jettySize=auto;html=1;entryX=0.5;entryY=0;entryDx=0;entryDy=0;" edge="1" parent="WIyWlLk6GJQsqaUBKTNV-1" source="osNyrSHT3eNxlnk6y9xx-29" target="osNyrSHT3eNxlnk6y9xx-34">
          <mxGeometry x="-1564" y="-35.75" as="geometry" />
        </mxCell>
        <mxCell id="osNyrSHT3eNxlnk6y9xx-36" value="Download Project" style="rounded=1;whiteSpace=wrap;html=1;fontSize=12;glass=0;strokeWidth=1;shadow=0;" vertex="1" parent="WIyWlLk6GJQsqaUBKTNV-1">
          <mxGeometry x="-609" y="679" width="120" height="40" as="geometry" />
        </mxCell>
        <mxCell id="osNyrSHT3eNxlnk6y9xx-37" style="edgeStyle=orthogonalEdgeStyle;rounded=0;orthogonalLoop=1;jettySize=auto;html=1;entryX=0.5;entryY=0;entryDx=0;entryDy=0;" edge="1" parent="WIyWlLk6GJQsqaUBKTNV-1" source="osNyrSHT3eNxlnk6y9xx-32" target="osNyrSHT3eNxlnk6y9xx-36">
          <mxGeometry x="-784" y="-41" as="geometry" />
        </mxCell>
        <mxCell id="osNyrSHT3eNxlnk6y9xx-38" style="edgeStyle=orthogonalEdgeStyle;rounded=0;orthogonalLoop=1;jettySize=auto;html=1;entryX=0;entryY=0.5;entryDx=0;entryDy=0;exitX=1;exitY=0.5;exitDx=0;exitDy=0;" edge="1" parent="WIyWlLk6GJQsqaUBKTNV-1" source="osNyrSHT3eNxlnk6y9xx-34" target="osNyrSHT3eNxlnk6y9xx-36">
          <mxGeometry x="-784" y="-41" as="geometry">
            <Array as="points">
              <mxPoint x="-817" y="699" />
              <mxPoint x="-817" y="699" />
            </Array>
          </mxGeometry>
        </mxCell>
        <mxCell id="osNyrSHT3eNxlnk6y9xx-39" value="Unzip Project" style="rounded=1;whiteSpace=wrap;html=1;fontSize=12;glass=0;strokeWidth=1;shadow=0;" vertex="1" parent="WIyWlLk6GJQsqaUBKTNV-1">
          <mxGeometry x="-609" y="753" width="120" height="40" as="geometry" />
        </mxCell>
        <mxCell id="osNyrSHT3eNxlnk6y9xx-40" style="edgeStyle=orthogonalEdgeStyle;rounded=0;orthogonalLoop=1;jettySize=auto;html=1;entryX=0.5;entryY=0;entryDx=0;entryDy=0;" edge="1" parent="WIyWlLk6GJQsqaUBKTNV-1" source="osNyrSHT3eNxlnk6y9xx-36" target="osNyrSHT3eNxlnk6y9xx-39">
          <mxGeometry x="-784" y="-41" as="geometry" />
        </mxCell>
        <mxCell id="osNyrSHT3eNxlnk6y9xx-48" style="edgeStyle=none;rounded=0;orthogonalLoop=1;jettySize=auto;html=1;exitX=0.5;exitY=0;exitDx=0;exitDy=0;entryX=0.5;entryY=1;entryDx=0;entryDy=0;" edge="1" parent="WIyWlLk6GJQsqaUBKTNV-1" source="osNyrSHT3eNxlnk6y9xx-41" target="osNyrSHT3eNxlnk6y9xx-46">
          <mxGeometry relative="1" as="geometry" />
        </mxCell>
        <mxCell id="osNyrSHT3eNxlnk6y9xx-41" value="Project File Path" style="shape=parallelogram;html=1;strokeWidth=2;perimeter=parallelogramPerimeter;whiteSpace=wrap;rounded=1;arcSize=12;size=0.23;" vertex="1" parent="WIyWlLk6GJQsqaUBKTNV-1">
          <mxGeometry x="-292" y="755.5" width="150" height="35" as="geometry" />
        </mxCell>
        <mxCell id="osNyrSHT3eNxlnk6y9xx-42" style="edgeStyle=orthogonalEdgeStyle;rounded=0;orthogonalLoop=1;jettySize=auto;html=1;exitX=1;exitY=0.5;exitDx=0;exitDy=0;entryX=0;entryY=0.5;entryDx=0;entryDy=0;" edge="1" parent="WIyWlLk6GJQsqaUBKTNV-1" source="osNyrSHT3eNxlnk6y9xx-39" target="osNyrSHT3eNxlnk6y9xx-41">
          <mxGeometry x="-784" y="-41" as="geometry" />
        </mxCell>
        <mxCell id="osNyrSHT3eNxlnk6y9xx-44" style="edgeStyle=none;rounded=0;orthogonalLoop=1;jettySize=auto;html=1;entryX=0.5;entryY=0;entryDx=0;entryDy=0;" edge="1" parent="WIyWlLk6GJQsqaUBKTNV-1" source="osNyrSHT3eNxlnk6y9xx-43" target="osNyrSHT3eNxlnk6y9xx-18">
          <mxGeometry relative="1" as="geometry" />
        </mxCell>
        <mxCell id="osNyrSHT3eNxlnk6y9xx-43" value="Show Busy Indicator" style="rounded=1;whiteSpace=wrap;html=1;fontSize=12;glass=0;strokeWidth=1;shadow=0;" vertex="1" parent="WIyWlLk6GJQsqaUBKTNV-1">
          <mxGeometry x="-639" y="-47" width="180" height="40" as="geometry" />
        </mxCell>
        <mxCell id="osNyrSHT3eNxlnk6y9xx-50" style="edgeStyle=none;rounded=0;orthogonalLoop=1;jettySize=auto;html=1;exitX=0.5;exitY=0;exitDx=0;exitDy=0;entryX=0.5;entryY=1;entryDx=0;entryDy=0;" edge="1" parent="WIyWlLk6GJQsqaUBKTNV-1" source="osNyrSHT3eNxlnk6y9xx-46" target="osNyrSHT3eNxlnk6y9xx-49">
          <mxGeometry relative="1" as="geometry" />
        </mxCell>
        <mxCell id="osNyrSHT3eNxlnk6y9xx-46" value="Hide Busy Indicator" style="rounded=1;whiteSpace=wrap;html=1;fontSize=12;glass=0;strokeWidth=1;shadow=0;" vertex="1" parent="WIyWlLk6GJQsqaUBKTNV-1">
          <mxGeometry x="-303" y="-138" width="180" height="40" as="geometry" />
        </mxCell>
        <mxCell id="osNyrSHT3eNxlnk6y9xx-47" value="" style="endArrow=none;dashed=1;html=1;exitX=1;exitY=0.5;exitDx=0;exitDy=0;" edge="1" parent="WIyWlLk6GJQsqaUBKTNV-1" source="osNyrSHT3eNxlnk6y9xx-11" target="osNyrSHT3eNxlnk6y9xx-46">
          <mxGeometry width="50" height="50" relative="1" as="geometry">
            <mxPoint x="-797" y="-118" as="sourcePoint" />
            <mxPoint x="535" y="-118.5" as="targetPoint" />
          </mxGeometry>
        </mxCell>
        <mxCell id="WIyWlLk6GJQsqaUBKTNV-3" value="Click Start Event" style="rounded=1;whiteSpace=wrap;html=1;fontSize=12;glass=0;strokeWidth=1;shadow=0;" parent="WIyWlLk6GJQsqaUBKTNV-1" vertex="1">
          <mxGeometry x="-609" y="-139" width="120" height="40" as="geometry" />
        </mxCell>
        <mxCell id="osNyrSHT3eNxlnk6y9xx-49" value="FT Selection" style="rounded=1;whiteSpace=wrap;html=1;fontSize=12;glass=0;strokeWidth=1;shadow=0;" vertex="1" parent="WIyWlLk6GJQsqaUBKTNV-1">
          <mxGeometry x="-219" y="-315" width="120" height="40" as="geometry" />
        </mxCell>
        <mxCell id="dTgxTN9ih--eL3uSXzqX-3" value="Click&lt;br&gt;&amp;nbsp;Set Data Log Event" style="rounded=1;whiteSpace=wrap;html=1;fontSize=12;glass=0;strokeWidth=1;shadow=0;" parent="WIyWlLk6GJQsqaUBKTNV-1" vertex="1">
          <mxGeometry x="238" y="-138" width="120" height="40" as="geometry" />
        </mxCell>
        <mxCell id="dTgxTN9ih--eL3uSXzqX-10" value="Is CP ?" style="rhombus;whiteSpace=wrap;html=1;shadow=0;fontFamily=Helvetica;fontSize=12;align=center;strokeWidth=1;spacing=6;spacingTop=-4;" parent="WIyWlLk6GJQsqaUBKTNV-1" vertex="1">
          <mxGeometry x="253" y="-48" width="90" height="60" as="geometry" />
        </mxCell>
        <mxCell id="dTgxTN9ih--eL3uSXzqX-11" style="edgeStyle=orthogonalEdgeStyle;rounded=0;orthogonalLoop=1;jettySize=auto;html=1;entryX=0.5;entryY=0;entryDx=0;entryDy=0;" parent="WIyWlLk6GJQsqaUBKTNV-1" source="dTgxTN9ih--eL3uSXzqX-3" target="dTgxTN9ih--eL3uSXzqX-10" edge="1">
          <mxGeometry x="-62" y="-138" as="geometry" />
        </mxCell>
        <mxCell id="dTgxTN9ih--eL3uSXzqX-12" value="Confirm User Selection" style="rhombus;whiteSpace=wrap;html=1;shadow=0;fontFamily=Helvetica;fontSize=12;align=center;strokeWidth=1;spacing=6;spacingTop=-4;" parent="WIyWlLk6GJQsqaUBKTNV-1" vertex="1">
          <mxGeometry x="235.5" y="52" width="125" height="80" as="geometry" />
        </mxCell>
        <mxCell id="dTgxTN9ih--eL3uSXzqX-13" style="edgeStyle=orthogonalEdgeStyle;rounded=0;orthogonalLoop=1;jettySize=auto;html=1;entryX=0.5;entryY=0;entryDx=0;entryDy=0;" parent="WIyWlLk6GJQsqaUBKTNV-1" source="dTgxTN9ih--eL3uSXzqX-10" target="dTgxTN9ih--eL3uSXzqX-12" edge="1">
          <mxGeometry x="-62" y="-138" as="geometry" />
        </mxCell>
        <mxCell id="dTgxTN9ih--eL3uSXzqX-14" value="Show Error Message" style="rounded=1;whiteSpace=wrap;html=1;fontSize=12;glass=0;strokeWidth=1;shadow=0;" parent="WIyWlLk6GJQsqaUBKTNV-1" vertex="1">
          <mxGeometry x="-62" y="72" width="180" height="40" as="geometry" />
        </mxCell>
        <mxCell id="dTgxTN9ih--eL3uSXzqX-15" style="edgeStyle=orthogonalEdgeStyle;rounded=0;orthogonalLoop=1;jettySize=auto;html=1;exitX=0;exitY=0.5;exitDx=0;exitDy=0;entryX=1;entryY=0.5;entryDx=0;entryDy=0;" parent="WIyWlLk6GJQsqaUBKTNV-1" source="dTgxTN9ih--eL3uSXzqX-12" target="dTgxTN9ih--eL3uSXzqX-14" edge="1">
          <mxGeometry x="-62" y="-138" as="geometry" />
        </mxCell>
        <mxCell id="dTgxTN9ih--eL3uSXzqX-16" value="Error" style="edgeLabel;html=1;align=center;verticalAlign=middle;resizable=0;points=[];" parent="dTgxTN9ih--eL3uSXzqX-15" vertex="1" connectable="0">
          <mxGeometry x="-0.2616" relative="1" as="geometry">
            <mxPoint as="offset" />
          </mxGeometry>
        </mxCell>
        <mxCell id="dTgxTN9ih--eL3uSXzqX-17" value="Show Production Information" style="rounded=1;whiteSpace=wrap;html=1;fontSize=12;glass=0;strokeWidth=1;shadow=0;" parent="WIyWlLk6GJQsqaUBKTNV-1" vertex="1">
          <mxGeometry x="208" y="184.5" width="180" height="40" as="geometry" />
        </mxCell>
        <mxCell id="dTgxTN9ih--eL3uSXzqX-19" style="edgeStyle=orthogonalEdgeStyle;rounded=0;orthogonalLoop=1;jettySize=auto;html=1;entryX=1;entryY=0.5;entryDx=0;entryDy=0;" parent="WIyWlLk6GJQsqaUBKTNV-1" source="dTgxTN9ih--eL3uSXzqX-10" target="dTgxTN9ih--eL3uSXzqX-17" edge="1">
          <mxGeometry x="-62" y="-138" as="geometry">
            <Array as="points">
              <mxPoint x="428" y="-18" />
              <mxPoint x="428" y="204" />
            </Array>
          </mxGeometry>
        </mxCell>
        <mxCell id="dTgxTN9ih--eL3uSXzqX-28" value="No" style="edgeLabel;html=1;align=center;verticalAlign=middle;resizable=0;points=[];" parent="dTgxTN9ih--eL3uSXzqX-19" vertex="1" connectable="0">
          <mxGeometry x="-0.8197" relative="1" as="geometry">
            <mxPoint y="1" as="offset" />
          </mxGeometry>
        </mxCell>
        <mxCell id="dTgxTN9ih--eL3uSXzqX-18" style="edgeStyle=orthogonalEdgeStyle;rounded=0;orthogonalLoop=1;jettySize=auto;html=1;" parent="WIyWlLk6GJQsqaUBKTNV-1" source="dTgxTN9ih--eL3uSXzqX-12" target="dTgxTN9ih--eL3uSXzqX-17" edge="1">
          <mxGeometry x="-62" y="-138" as="geometry" />
        </mxCell>
        <mxCell id="dTgxTN9ih--eL3uSXzqX-26" style="edgeStyle=orthogonalEdgeStyle;rounded=0;orthogonalLoop=1;jettySize=auto;html=1;exitX=1;exitY=0.5;exitDx=0;exitDy=0;" parent="WIyWlLk6GJQsqaUBKTNV-1" source="dTgxTN9ih--eL3uSXzqX-20" edge="1">
          <mxGeometry x="-62" y="-138" as="geometry">
            <Array as="points">
              <mxPoint x="518" y="302" />
              <mxPoint x="518" y="-118" />
            </Array>
            <mxPoint x="550" y="-221" as="targetPoint" />
          </mxGeometry>
        </mxCell>
        <mxCell id="dTgxTN9ih--eL3uSXzqX-27" value="Found Error" style="edgeLabel;html=1;align=center;verticalAlign=middle;resizable=0;points=[];" parent="dTgxTN9ih--eL3uSXzqX-26" vertex="1" connectable="0">
          <mxGeometry x="-0.8632" y="-1" relative="1" as="geometry">
            <mxPoint as="offset" />
          </mxGeometry>
        </mxCell>
        <mxCell id="dTgxTN9ih--eL3uSXzqX-20" value="User Confirm Info." style="rhombus;whiteSpace=wrap;html=1;shadow=0;fontFamily=Helvetica;fontSize=12;align=center;strokeWidth=1;spacing=6;spacingTop=-4;" parent="WIyWlLk6GJQsqaUBKTNV-1" vertex="1">
          <mxGeometry x="235.5" y="262" width="125" height="80" as="geometry" />
        </mxCell>
        <mxCell id="dTgxTN9ih--eL3uSXzqX-22" style="edgeStyle=orthogonalEdgeStyle;rounded=0;orthogonalLoop=1;jettySize=auto;html=1;entryX=0.5;entryY=0;entryDx=0;entryDy=0;" parent="WIyWlLk6GJQsqaUBKTNV-1" source="dTgxTN9ih--eL3uSXzqX-17" target="dTgxTN9ih--eL3uSXzqX-20" edge="1">
          <mxGeometry x="-62" y="-138" as="geometry" />
        </mxCell>
        <mxCell id="dTgxTN9ih--eL3uSXzqX-21" value="Start Production Process" style="rounded=1;whiteSpace=wrap;html=1;fontSize=12;glass=0;strokeWidth=1;shadow=0;" parent="WIyWlLk6GJQsqaUBKTNV-1" vertex="1">
          <mxGeometry x="238" y="407" width="120" height="40" as="geometry" />
        </mxCell>
        <mxCell id="dTgxTN9ih--eL3uSXzqX-23" style="edgeStyle=orthogonalEdgeStyle;rounded=0;orthogonalLoop=1;jettySize=auto;html=1;entryX=0.5;entryY=0;entryDx=0;entryDy=0;" parent="WIyWlLk6GJQsqaUBKTNV-1" source="dTgxTN9ih--eL3uSXzqX-20" target="dTgxTN9ih--eL3uSXzqX-21" edge="1">
          <mxGeometry x="-62" y="-138" as="geometry">
            <Array as="points">
              <mxPoint x="298" y="407" />
            </Array>
            <mxPoint x="393" y="398" as="targetPoint" />
          </mxGeometry>
        </mxCell>
        <mxCell id="dTgxTN9ih--eL3uSXzqX-24" value="OK" style="edgeLabel;html=1;align=center;verticalAlign=middle;resizable=0;points=[];" parent="dTgxTN9ih--eL3uSXzqX-23" vertex="1" connectable="0">
          <mxGeometry x="-0.281" y="2" relative="1" as="geometry">
            <mxPoint as="offset" />
          </mxGeometry>
        </mxCell>
        <mxCell id="osNyrSHT3eNxlnk6y9xx-53" style="edgeStyle=none;rounded=0;orthogonalLoop=1;jettySize=auto;html=1;entryX=0.5;entryY=0;entryDx=0;entryDy=0;" edge="1" parent="WIyWlLk6GJQsqaUBKTNV-1" source="osNyrSHT3eNxlnk6y9xx-52" target="dTgxTN9ih--eL3uSXzqX-3">
          <mxGeometry relative="1" as="geometry" />
        </mxCell>
        <mxCell id="osNyrSHT3eNxlnk6y9xx-52" value="Click&lt;br&gt;&amp;nbsp;Set Data Log Button" style="rounded=1;whiteSpace=wrap;html=1;fontSize=12;glass=0;strokeWidth=1;shadow=0;" vertex="1" parent="WIyWlLk6GJQsqaUBKTNV-1">
          <mxGeometry x="122" y="-315" width="120" height="40" as="geometry" />
        </mxCell>
      </root>
    </mxGraphModel>
  </diagram>
  <diagram id="znlIZRhrjt059GyiPZnV" name="Page-2">
    <mxGraphModel dx="1422" dy="794" grid="1" gridSize="10" guides="1" tooltips="1" connect="1" arrows="1" fold="1" page="1" pageScale="1" pageWidth="827" pageHeight="1169" math="0" shadow="0">
      <root>
        <mxCell id="lxq8cxxwP00iRjFGByOI-0" />
        <mxCell id="lxq8cxxwP00iRjFGByOI-1" parent="lxq8cxxwP00iRjFGByOI-0" />
      </root>
    </mxGraphModel>
  </diagram>
</mxfile>
